<svg width="265" height="150" viewBox="0 0 265 150" fill="none" xmlns="http://www.w3.org/2000/svg">
<path d="M152.156 105.96C152.412 105.875 152.668 105.875 152.924 105.96C153.18 106.045 153.35 106.195 153.436 106.408C153.564 106.621 153.585 106.856 153.5 107.112C153.03 108.52 152.198 110.419 151.004 112.808C150.15 114.557 149.169 116.349 148.06 118.184C145.884 121.768 143.494 125.096 140.892 128.168C135.26 134.909 128.945 140.072 121.948 143.656C118.278 145.533 114.417 146.941 110.364 147.88C106.652 148.691 102.556 149.117 98.0755 149.16C93.9368 149.203 89.8195 148.84 85.7235 148.072C81.8408 147.475 77.8728 146.067 73.8195 143.848L72.4755 143.016L71.7715 142.632L71.1315 142.184L68.5075 140.328L66.1395 138.28C65.9262 138.109 65.7128 137.917 65.4995 137.704C65.2862 137.533 65.0942 137.363 64.9235 137.192C64.7955 137.021 64.6248 136.829 64.4115 136.616C64.1982 136.403 64.0062 136.211 63.8355 136.04C60.9768 133.096 58.4595 129.747 56.2835 125.992C52.3155 118.995 49.4782 111.208 47.7715 102.632C46.9608 98.664 46.3848 94.568 46.0435 90.344C45.9155 88.808 45.8088 87.1227 45.7235 85.288C45.7235 85.288 45.6808 85.2667 45.5955 85.224C45.5102 85.1813 45.4462 85.1387 45.4035 85.096C44.5502 84.6267 43.7395 84.0507 42.9715 83.368C42.8862 83.496 42.6728 83.816 42.3315 84.328C42.0328 84.8827 41.7982 85.288 41.6275 85.544L23.0675 116.456C19.1848 122.941 16.1342 128.104 13.9155 131.944C12.2088 134.888 10.7368 137.469 9.4995 139.688C8.51817 141.523 7.8355 142.845 7.4515 143.656C6.6835 145.107 6.08617 146.387 5.6595 147.496L5.5955 147.624C5.42483 148.093 5.10483 148.435 4.6355 148.648C4.20883 148.861 3.78217 148.883 3.3555 148.712C3.14217 148.627 2.9715 148.541 2.8435 148.456V148.392C1.60617 147.539 0.8595 146.323 0.6035 144.744C0.432833 143.677 0.432833 142.483 0.6035 141.16C0.8595 139.411 1.45683 137.341 2.3955 134.952C3.63283 131.795 5.4675 128.125 7.8995 123.944C11.3128 118.013 15.7715 111.251 21.2755 103.656C26.9502 95.848 33.1582 87.8693 39.8995 79.72C38.9182 78.0133 38.3208 76.2213 38.1075 74.344C37.8515 72.04 38.1075 69.8213 38.8755 67.688C39.5155 65.9387 40.5608 64.0613 42.0115 62.056C43.0782 60.5627 44.4008 58.984 45.9795 57.32C46.1502 57.1493 46.7688 56.5093 47.8355 55.4C48.9448 54.2907 49.7342 53.3947 50.2035 52.712C50.4595 52.328 50.8008 52.0933 51.2275 52.008C51.6968 51.9227 52.1235 52.008 52.5075 52.264C53.0195 52.6053 53.2542 53.096 53.2115 53.736L53.1475 54.824C52.3368 56.9573 51.6755 59.4747 51.1635 62.376L57.0515 52.776L66.4595 37.416C67.8248 35.1547 69.3608 32.5947 71.0675 29.736C71.5368 28.9253 72.1128 27.9227 72.7955 26.728C71.7715 27.624 71.0888 28.2213 70.7475 28.52L64.4755 33.64C61.9155 35.688 59.8462 37.3947 58.2675 38.76C57.7555 39.2293 57.2648 39.6773 56.7955 40.104C56.1982 40.616 55.7288 41.064 55.3875 41.448C54.4488 42.3013 53.6382 43.2187 52.9555 44.2L52.8275 44.328C52.5288 44.7547 52.1235 45.0107 51.6115 45.096C51.0995 45.1813 50.6302 45.0747 50.2035 44.776C49.8195 44.4347 49.5848 44.0293 49.4995 43.56C49.4142 43.048 49.5208 42.5787 49.8195 42.152C49.8622 42.1093 49.8835 42.0667 49.8835 42.024C50.6942 41.128 51.2062 40.5733 51.4195 40.36L52.1875 39.592L53.0195 38.888C53.4462 38.504 53.9795 38.056 54.6195 37.544C55.1315 37.1173 55.6648 36.6907 56.2195 36.264C57.8835 34.984 60.0595 33.3627 62.7475 31.4L69.3395 26.664C70.5342 25.768 71.5795 24.9573 72.4755 24.232C72.5608 24.1893 72.7955 24.0187 73.1795 23.72C73.5635 23.4213 73.8408 23.1867 74.0115 23.016C74.0542 22.9307 74.1182 22.8453 74.2035 22.76C74.3315 22.6747 74.4168 22.6107 74.4595 22.568C74.5448 22.4827 74.6302 22.3973 74.7155 22.312L75.2915 21.672L75.4195 21.544C75.7182 21.2027 76.0595 21.1173 76.4435 21.288C76.7848 21.4587 76.9768 21.7147 77.0195 22.056C77.0195 22.2267 76.9982 22.376 76.9555 22.504C76.8275 23.0587 76.7208 23.4427 76.6355 23.656L76.2515 24.744C76.1235 25.0427 75.9315 25.448 75.6755 25.96C75.4622 26.472 75.3342 26.7707 75.2915 26.856C74.5235 28.52 73.8622 29.8853 73.3075 30.952C72.6675 32.232 71.2595 34.8987 69.0835 38.952C67.9742 40.9573 64.9875 46.184 60.1235 54.632C59.5688 55.5707 58.5235 57.3413 56.9875 59.944C66.8435 48.9787 76.1875 39.272 85.0195 30.824C91.5475 24.5947 97.5848 19.24 103.132 14.76C106.63 11.944 109.894 9.512 112.924 7.464C117.02 4.73333 120.604 2.792 123.676 1.64C124.785 1.21333 125.809 0.914665 126.748 0.743996C127.985 0.487994 129.009 0.338661 129.82 0.295998C131.185 0.210665 132.273 0.231997 133.084 0.359993C133.297 0.402662 133.852 0.530663 134.748 0.743996C135.729 1.128 136.262 1.36267 136.348 1.448C138.31 2.51466 139.825 4.2 140.892 6.504C141.788 8.424 142.385 10.5147 142.684 12.776C142.684 12.8187 142.684 12.904 142.684 13.032C142.726 13.1173 142.748 13.2027 142.748 13.288C142.748 13.3733 142.769 13.4587 142.812 13.544V14.376C142.812 15.4 142.812 15.976 142.812 16.104L142.684 17.704C142.684 17.8747 142.662 18.0453 142.62 18.216C142.577 18.3867 142.534 18.5787 142.492 18.792C142.449 19.0053 142.428 19.176 142.428 19.304C142.129 20.9253 141.596 22.952 140.827 25.384C139.59 28.9253 137.884 32.7013 135.708 36.712C131.91 43.752 127.26 50.4507 121.756 56.808C118.812 60.1787 115.953 63.1227 113.18 65.64C110.364 68.328 107.228 70.952 103.772 73.512C100.998 75.6027 97.5422 77.8 93.4035 80.104L90.6515 81.512C90.5235 81.5547 90.3955 81.5973 90.2675 81.64C90.1395 81.7253 90.0115 81.7893 89.8835 81.832C89.7982 81.9173 89.6915 81.9813 89.5635 82.024C89.4782 82.1093 89.3715 82.1733 89.2435 82.216L87.8355 82.856C87.7502 82.856 87.3448 83.0053 86.6195 83.304C85.8942 83.6453 85.3395 83.88 84.9555 84.008L82.0755 85.096C77.6808 86.5467 73.6702 87.5067 70.0435 87.976C69.1902 88.104 67.1208 88.2747 63.8355 88.488C63.7502 88.5307 63.2382 88.5307 62.2995 88.488C61.3608 88.488 60.8488 88.488 60.7635 88.488C59.1848 88.4453 58.1395 88.3813 57.6275 88.296L54.5555 88.04C54.4702 87.9973 53.9582 87.912 53.0195 87.784C52.9342 87.7413 52.6995 87.6773 52.3155 87.592C51.9315 87.5493 51.6328 87.5067 51.4195 87.464C50.9075 87.336 50.3955 87.1867 49.8835 87.016C49.9688 87.9973 50.0542 89 50.1395 90.024C50.4808 94.0773 51.0355 98.0027 51.8035 101.8C53.5102 110.248 56.1342 117.651 59.6755 124.008C61.6808 127.507 63.9848 130.643 66.5875 133.416C66.6728 133.501 66.9715 133.8 67.4835 134.312C67.9955 134.824 68.4008 135.208 68.6995 135.464L70.8755 137.384L73.2435 139.048L73.8195 139.496L74.4595 139.88L75.6755 140.584C79.3448 142.675 82.9288 144.189 86.4275 145.128C90.9075 146.323 94.7902 146.984 98.0755 147.112C106.182 147.453 113.905 145.811 121.244 142.184C128.028 138.899 134.193 133.907 139.74 127.208C142.342 124.093 144.646 120.808 146.652 117.352C147.718 115.517 148.657 113.747 149.468 112.04C150.449 109.992 151.196 108.157 151.708 106.536H151.771C151.814 106.28 151.942 106.088 152.156 105.96ZM53.4035 67.432C52.5928 68.328 51.6115 69.48 50.4595 70.888C50.3315 71.0587 50.1822 71.3147 50.0115 71.656C49.8408 73.832 49.7342 75.9653 49.6915 78.056C49.6915 79.8907 49.7128 81.768 49.7555 83.688C50.5662 83.9867 51.3555 84.2427 52.1235 84.456C52.2515 84.456 52.4008 84.4773 52.5715 84.52C52.7422 84.5627 52.9128 84.584 53.0835 84.584C53.2968 84.6267 53.4462 84.6693 53.5315 84.712C54.4275 84.84 54.8968 84.904 54.9395 84.904L57.8835 85.224C58.3102 85.2667 59.2915 85.288 60.8275 85.288C60.9128 85.288 61.3822 85.288 62.2355 85.288C63.1315 85.3307 63.6435 85.3307 63.7715 85.288C66.9288 85.0747 68.8702 84.904 69.5955 84.776C73.0088 84.3067 76.8062 83.3467 80.9875 81.896L83.7395 80.872C84.0808 80.744 84.5715 80.5307 85.2115 80.232C85.8942 79.9333 86.2995 79.7627 86.4275 79.72L87.7715 79.08C87.8995 79.0373 88.0275 78.9733 88.1555 78.888C88.3262 78.8027 88.4968 78.7173 88.6675 78.632C88.8382 78.5467 88.9875 78.4827 89.1155 78.44L91.7395 77.096C95.7502 74.7493 99.0568 72.5947 101.66 70.632C104.988 68.1147 107.996 65.576 110.684 63.016C113.329 60.5413 116.06 57.6613 118.876 54.376C124.38 48.0187 128.902 41.5333 132.444 34.92C134.534 31.1227 136.156 27.56 137.308 24.232C138.033 21.9707 138.524 20.1147 138.78 18.664C138.78 18.6213 138.801 18.4293 138.844 18.088C138.929 17.704 138.972 17.4267 138.972 17.256L139.1 15.912C139.1 15.8693 139.1 15.4213 139.1 14.568V13.928C139.1 13.8427 139.078 13.7147 139.036 13.544C139.036 13.3307 139.036 13.224 139.036 13.224L138.844 11.816C138.801 11.6453 138.758 11.4107 138.715 11.112C138.673 10.8133 138.63 10.5787 138.588 10.408L138.46 9.704L138.268 9.064C138.268 8.97866 138.225 8.78666 138.14 8.488C138.054 8.14666 137.969 7.912 137.883 7.784C137.244 5.864 136.305 4.456 135.068 3.56C133.788 2.57866 132.081 2.13066 129.948 2.216C129.009 2.25866 128.049 2.36533 127.068 2.536C126.257 2.70667 125.34 2.984 124.316 3.368C121.414 4.47733 117.958 6.376 113.948 9.064C111.004 11.0693 107.804 13.4587 104.348 16.232C98.8435 20.712 92.8702 26.0667 86.4275 32.296C75.2062 43.1333 64.1982 54.8453 53.4035 67.432ZM41.1155 73.96C41.2435 75.0267 41.5422 76.0933 42.0115 77.16C42.0968 77.0747 42.2248 76.9467 42.3955 76.776L46.1075 70.632C46.2782 68.7973 46.4702 67.1333 46.6835 65.64C46.9822 63.5067 47.3448 61.544 47.7715 59.752C46.4488 61.2027 45.3395 62.568 44.4435 63.848C43.1635 65.5973 42.2462 67.2187 41.6915 68.712C41.0942 70.376 40.9022 72.1253 41.1155 73.96ZM19.6115 114.344C23.2808 108.157 27.3342 101.416 31.7715 94.12C28.8275 98.0027 26.0968 101.715 23.5795 105.256C18.2888 112.851 14.0008 119.592 10.7155 125.48C8.4115 129.619 6.70483 133.181 5.5955 136.168C5.25417 137.192 4.9555 138.152 4.6995 139.048C4.4435 139.944 4.27283 140.797 4.1875 141.608C4.1875 141.651 4.1875 141.693 4.1875 141.736C4.14483 141.779 4.1235 141.8 4.1235 141.8C4.55017 140.947 5.23283 139.645 6.1715 137.896C7.36617 135.592 8.81683 132.947 10.5235 129.96C13.0835 125.437 16.1128 120.232 19.6115 114.344ZM44.5715 80.68C44.9128 81.0213 45.2755 81.32 45.6595 81.576C45.6595 80.7653 45.6595 79.8693 45.6595 78.888L44.5715 80.68Z" fill="url(#paint0_linear_510_3)"/>
<path d="M109.127 95.512C109.127 95.8533 108.913 96.2373 108.487 96.664C108.06 97.0053 107.804 97.2613 107.719 97.432C108.913 97.432 109.852 97.1333 110.535 96.536C111.985 95.512 113.521 94.4453 115.143 93.336C116.849 92.1413 118.727 90.8613 120.775 89.496C122.823 88.1307 124.401 87.064 125.511 86.296C126.108 85.9547 127.388 85.1867 129.351 83.992C131.399 82.7973 132.977 81.9867 134.087 81.56C134.94 81.2187 136.177 80.5787 137.799 79.64C139.505 78.7013 140.743 78.0613 141.511 77.72C142.62 77.1227 143.9 76.568 145.351 76.056C146.887 75.4587 148.551 74.8613 150.343 74.264C152.22 73.5813 153.671 73.0693 154.695 72.728C155.121 72.8133 155.42 72.856 155.591 72.856C155.847 72.856 156.145 72.7707 156.487 72.6C156.913 72.344 157.212 72.1733 157.383 72.088C156.359 72.088 155.591 71.96 155.079 71.704H154.823C154.823 71.448 154.908 71.32 155.079 71.32C157.297 71.1493 159.089 71.4907 160.455 72.344L161.735 73.24C163.1 73.8373 164.209 75.0747 165.063 76.952C165.063 77.0373 165.191 77.592 165.447 78.616C165.532 79.0427 165.489 79.896 165.319 81.176C165.148 81.7733 164.807 82.712 164.295 83.992C163.783 85.272 163.441 86.296 163.271 87.064C163.271 87.576 163.185 87.9173 163.015 88.088C162.503 88.4293 161.948 89.1973 161.351 90.392C160.753 91.5013 160.071 92.2267 159.303 92.568C159.729 92.6533 160.156 92.7387 160.583 92.824C161.095 92.824 161.479 92.8667 161.735 92.952C162.076 92.952 162.417 92.9947 162.759 93.08V93.208C161.308 93.208 160.241 93.3787 159.559 93.72L158.535 94.232V94.36C158.535 94.616 158.62 94.744 158.791 94.744C159.729 94.744 160.455 94.7867 160.967 94.872V95.256H161.095V95.512H162.119C162.204 95.512 162.375 95.5973 162.631 95.768L162.887 95.896C162.801 95.896 162.673 95.9387 162.503 96.024C162.332 96.024 162.161 96.024 161.991 96.024C161.393 96.024 161.095 95.8533 161.095 95.512H160.967V95.256C159.943 95.256 159.217 95.3413 158.791 95.512C158.705 95.512 158.62 95.512 158.535 95.512C158.364 95.4267 158.236 95.4267 158.151 95.512C158.065 95.512 158.065 95.64 158.151 95.896L158.279 96.024C158.535 96.1093 158.705 96.2373 158.791 96.408C158.961 96.408 159.132 96.4507 159.303 96.536C159.132 96.7067 158.961 96.792 158.791 96.792C157.852 96.792 157.212 96.8347 156.871 96.92C156.529 97.2613 156.657 97.432 157.255 97.432V97.816C157.169 97.816 156.956 97.944 156.615 98.2C156.359 98.3707 156.145 98.4987 155.975 98.584C155.207 98.584 154.14 99.1813 152.775 100.376C147.996 105.325 143.473 109.464 139.207 112.792C136.049 115.011 134.257 116.333 133.831 116.76C132.892 117.869 131.612 118.808 129.991 119.576C128.369 120.344 127.345 121.069 126.919 121.752C126.919 122.008 126.748 122.136 126.407 122.136C125.724 122.136 124.913 122.776 123.975 124.056C123.719 124.227 123.249 124.611 122.567 125.208C121.884 125.72 121.287 126.061 120.775 126.232C120.348 126.317 119.751 126.616 118.983 127.128C118.3 127.725 117.745 128.109 117.319 128.28L113.735 130.072C112.881 130.413 112.113 130.925 111.431 131.608C111.26 131.779 110.961 131.949 110.535 132.12C110.108 132.291 109.852 132.419 109.767 132.504C108.828 132.845 107.335 133.016 105.287 133.016C102.983 133.016 101.233 131.693 100.039 129.048C99.1852 127.085 99.0572 125.123 99.6545 123.16C99.6545 122.819 100.167 121.795 101.191 120.088C102.556 118.381 104.732 116.12 107.719 113.304C108.316 112.792 108.999 112.28 109.767 111.768C110.535 111.256 111.431 110.701 112.455 110.104C113.564 109.421 114.375 108.909 114.887 108.568H115.399C115.228 108.909 114.759 109.379 113.991 109.976C113.308 110.573 112.839 111.043 112.583 111.384C112.071 111.64 111.815 112.067 111.815 112.664C112.412 112.664 112.924 112.451 113.351 112.024C114.375 111 116.167 109.848 118.727 108.568L119.111 108.44C119.964 107.843 121.159 107.16 122.695 106.392C124.316 105.624 125.383 105.112 125.895 104.856C126.663 104.515 127.815 104.088 129.351 103.576C130.972 102.979 132.167 102.509 132.935 102.168C135.239 101.144 138.097 100.12 141.511 99.096C142.023 99.0107 143.004 98.7547 144.455 98.328C145.905 97.816 147.057 97.5173 147.911 97.432C148.593 97.3467 149.447 97.0053 150.471 96.408C151.239 96.408 151.239 96.024 150.471 95.256H150.087C150.087 95.0853 150.172 94.9573 150.343 94.872C151.367 95.0427 152.519 94.488 153.799 93.208C155.847 91.16 157.425 88.856 158.535 86.296C158.62 86.2107 158.705 86.0827 158.791 85.912C158.876 85.656 158.961 85.4853 159.047 85.4C160.327 84.12 161.308 81.304 161.991 76.952C161.991 76.0987 161.521 75.4587 160.583 75.032C160.156 74.776 159.729 74.648 159.303 74.648C158.876 74.5627 158.407 74.5627 157.895 74.648C157.468 74.7333 157.084 74.8187 156.743 74.904C156.487 74.9893 156.017 75.16 155.335 75.416C154.737 75.5867 154.311 75.7147 154.055 75.8C153.799 75.8853 153.372 76.0133 152.775 76.184C152.177 76.3547 151.793 76.4827 151.623 76.568C151.537 76.6533 151.367 76.696 151.111 76.696C150.855 76.696 150.599 76.7813 150.343 76.952C150.087 77.0373 149.831 77.208 149.575 77.464C149.489 77.6347 149.191 77.6347 148.679 77.464C148.252 77.2933 147.868 77.3787 147.527 77.72C146.417 78.1467 144.796 78.9147 142.663 80.024C140.529 81.048 138.951 81.7733 137.927 82.2C136.732 82.712 135.879 83.1813 135.367 83.608C134.172 84.632 132.252 85.912 129.607 87.448C127.047 88.8987 125.468 89.7947 124.871 90.136C120.945 92.8667 118.001 94.9573 116.039 96.408C115.783 96.5787 113.009 98.456 107.719 102.04C106.609 102.808 105.799 103.576 105.287 104.344C105.287 104.429 104.732 105.411 103.623 107.288C103.452 107.544 103.111 108.013 102.599 108.696C102.172 109.379 101.745 109.933 101.319 110.36C100.977 110.787 100.593 111.171 100.167 111.512C99.6545 112.024 98.6732 113.347 97.2225 115.48C95.1745 118.381 92.3585 120.344 88.7745 121.368C87.7505 121.795 86.1292 121.453 83.9105 120.344C83.9105 120.259 83.8678 120.131 83.7825 119.96C83.6972 119.704 83.6118 119.533 83.5265 119.448C83.2705 117.741 83.0572 116.717 82.8865 116.376C82.1185 115.267 82.1185 114.2 82.8865 113.176C83.3985 112.493 84.0812 111.384 84.9345 109.848C85.7878 108.227 86.4705 107.075 86.9825 106.392C87.0678 106.221 87.2812 106.051 87.6225 105.88C87.9638 105.709 88.1345 105.581 88.1345 105.496C88.1345 105.752 88.0918 106.008 88.0065 106.264C87.9212 106.52 87.7505 106.819 87.4945 107.16C87.2385 107.416 87.0678 107.672 86.9825 107.928C86.6412 108.525 86.0865 109.464 85.3185 110.744C84.5505 111.939 84.0385 112.792 83.7825 113.304C83.7825 113.645 83.8252 113.901 83.9105 114.072C84.1665 114.072 84.3372 113.987 84.4225 113.816C84.5932 113.475 85.3185 112.237 86.5985 110.104C86.8545 109.848 87.1532 109.464 87.4945 108.952C87.7505 108.355 88.0492 107.885 88.3905 107.544C88.7318 107.117 89.0732 106.776 89.4145 106.52V107.928C89.9265 107.843 90.1825 107.373 90.1825 106.52H89.4145C89.9265 104.984 90.9078 103.661 92.3585 102.552V103.832C92.9558 103.576 93.2972 103.405 93.3825 103.32V104.344C93.3825 104.6 93.5105 104.771 93.7665 104.856C93.7665 104.771 93.8092 104.728 93.8945 104.728C94.3212 104.131 94.5345 103.661 94.5345 103.32C94.6198 103.235 94.5772 103.149 94.4065 103.064C94.3212 102.893 94.1505 102.723 93.8945 102.552C93.8945 102.467 94.0225 102.424 94.2785 102.424C94.4492 101.997 94.4918 101.741 94.4065 101.656C94.3212 101.485 93.9798 101.357 93.3825 101.272C93.5532 101.016 94.0225 100.76 94.7905 100.504C95.5585 100.248 96.0705 99.9493 96.3265 99.608H96.4545C96.9665 99.608 97.2225 99.5653 97.2225 99.48V97.816C96.9665 97.7307 96.7532 97.7307 96.5825 97.816C96.4972 97.9013 96.4118 98.072 96.3265 98.328C96.2412 98.4987 96.1558 98.584 96.0705 98.584L94.7905 99.224C94.9612 98.7973 95.0892 98.5413 95.1745 98.456C95.3452 97.944 95.9852 96.9627 97.0945 95.512C97.2652 95.3413 97.5638 94.9573 97.9905 94.36C98.4172 93.7627 98.7585 93.2507 99.0145 92.824C100.295 90.9467 101.447 89.6667 102.471 88.984C102.897 87.2773 103.836 86.0827 105.287 85.4C105.372 85.912 105.756 86.168 106.439 86.168C106.524 85.9973 106.567 85.8693 106.567 85.784C106.396 85.272 106.183 85.1013 105.927 85.272C105.756 85.3573 105.543 85.4 105.287 85.4C105.628 84.4613 106.353 83.2667 107.463 81.816C107.975 81.2187 108.785 80.28 109.895 79C111.089 77.72 111.985 76.696 112.583 75.928C113.351 74.904 115.484 72.5147 118.983 68.76L122.311 65.432C122.823 64.7493 122.993 64.28 122.823 64.024C121.969 64.536 119.836 66.4133 116.423 69.656C115.655 70.424 114.588 71.6613 113.223 73.368C111.943 74.9893 111.047 76.056 110.535 76.568C109.511 77.9333 108.572 78.744 107.719 79C107.719 78.488 107.932 78.0187 108.359 77.592C114.161 70.7653 119.281 65.176 123.719 60.824C124.231 60.3973 125.169 59.544 126.535 58.264C127.985 56.8987 129.137 55.9173 129.991 55.32C134.257 51.3947 137.073 49.0053 138.439 48.152C144.753 43.3733 148.977 40.344 151.111 39.064C151.708 38.6373 152.689 37.9973 154.055 37.144C155.505 36.2053 156.615 35.48 157.383 34.968C158.748 33.944 161.521 32.7067 165.703 31.256H166.599C168.049 31.0853 169.884 31.2987 172.103 31.896C174.577 32.8347 176.455 34.712 177.735 37.528C178.332 38.7227 178.247 39.7893 177.479 40.728C173.639 45.848 170.439 49.304 167.879 51.096C165.489 52.8027 163.057 54.808 160.583 57.112C160.497 57.1973 160.412 57.2827 160.327 57.368L160.199 57.496C155.932 60.3973 152.348 63.0427 149.447 65.432C147.143 66.968 145.735 67.864 145.223 68.12C144.369 68.632 142.577 69.8693 139.847 71.832C137.201 73.7947 135.025 75.2027 133.319 76.056L125.895 80.536C125.127 80.7067 124.572 80.9627 124.231 81.304C123.377 81.9013 121.969 82.6693 120.007 83.608C118.129 84.4613 116.935 85.016 116.423 85.272C116.337 85.272 116.039 85.4 115.527 85.656C115.015 85.8267 114.631 85.912 114.375 85.912C113.948 86.168 113.393 86.168 112.711 85.912C111.345 84.9733 110.321 85.3147 109.639 86.936C109.468 87.1067 109.169 87.3627 108.743 87.704C108.401 88.0453 108.145 88.344 107.975 88.6C106.524 90.648 105.628 91.9707 105.287 92.568C102.385 96.2373 100.508 98.7547 99.6545 100.12C98.1185 101.656 97.2652 102.723 97.0945 103.32C97.0092 103.661 96.9665 104.003 96.9665 104.344C97.5638 103.917 98.6305 103.107 100.167 101.912C101.788 100.717 103.025 99.7787 103.879 99.096C104.903 98.328 105.5 97.944 105.671 97.944C105.585 98.2853 105.415 98.6693 105.159 99.096C104.988 99.4373 104.86 99.736 104.775 99.992C106.396 99.48 107.377 98.6267 107.719 97.432H106.567C107.249 96.152 108.103 95.512 109.127 95.512ZM118.087 75.928C117.063 77.2933 116.167 78.36 115.399 79.128C115.399 79.2987 115.228 79.6827 114.887 80.28L114.631 80.664C114.801 80.8347 115.015 80.92 115.271 80.92L118.087 79C120.22 77.8053 125.937 74.3067 135.239 68.504C137.543 66.712 140.572 64.6213 144.327 62.232C144.583 61.976 144.881 61.848 145.223 61.848C145.137 62.36 144.924 62.7867 144.583 63.128C144.241 63.4693 143.985 63.6827 143.815 63.768C143.729 63.768 143.345 63.9813 142.663 64.408C142.151 64.8347 141.255 65.4747 139.975 66.328C138.78 67.096 137.927 67.6507 137.415 67.992C136.561 68.504 135.879 69.0587 135.367 69.656C135.793 69.9973 136.092 69.9973 136.263 69.656C138.14 68.632 139.889 67.5653 141.511 66.456C141.852 66.2853 143.644 65.0907 146.887 62.872C150.129 60.6533 152.519 58.9467 154.055 57.752C157.724 55.1067 161.308 52.2907 164.807 49.304C165.148 49.048 166.001 48.28 167.367 47C168.732 45.72 169.799 44.8667 170.567 44.44H170.951C171.036 43.928 171.42 43.416 172.103 42.904C172.359 42.7333 172.657 42.3067 172.999 41.624C173.34 40.856 173.809 40.3867 174.407 40.216C174.492 40.1307 174.492 40.0453 174.407 39.96C174.407 39.8747 174.321 39.704 174.151 39.448C173.895 39.1067 173.681 39.1067 173.511 39.448C172.999 40.216 172.06 41.1973 170.695 42.392C169.329 43.5013 168.391 44.3973 167.879 45.08C167.537 45.4213 167.025 45.592 166.343 45.592L166.087 46.104C163.356 48.8347 161.137 50.7547 159.431 51.864C159.345 52.12 159.004 52.248 158.407 52.248C158.492 51.992 158.705 51.608 159.047 51.096C161.095 49.816 163.015 48.152 164.807 46.104C165.233 45.6773 165.66 45.464 166.087 45.464L166.727 44.568L170.439 40.856C171.292 40.088 172.017 38.9787 172.615 37.528C172.785 36.1627 172.359 35.1387 171.335 34.456C170.737 34.0293 169.884 33.816 168.775 33.816C168.604 33.816 168.135 34.072 167.367 34.584C166.94 35.1813 166.513 35.5227 166.087 35.608C161.649 37.3147 155.591 40.7707 147.911 45.976C147.399 46.3173 146.076 47.3413 143.943 49.048C141.809 50.6693 140.103 51.9067 138.823 52.76C136.007 55.1493 134.257 56.728 133.575 57.496C132.892 58.776 132.124 59.6293 131.271 60.056C131.1 60.2267 130.716 60.696 130.119 61.464C129.607 62.1467 129.18 62.5733 128.839 62.744C128.583 63 128.327 63.384 128.071 63.896C127.815 64.3227 127.644 64.5787 127.559 64.664C127.132 65.3467 126.876 65.7733 126.791 65.944C125.852 66.5413 124.657 68.0347 123.207 70.424C122.951 70.5947 122.567 70.9787 122.055 71.576C121.543 72.088 121.116 72.472 120.775 72.728C119.921 73.4107 119.025 74.4773 118.087 75.928ZM133.575 111.512C135.452 110.317 137.628 108.653 140.103 106.52L144.711 102.424C144.796 102.253 144.839 101.955 144.839 101.528H144.199C143.857 101.784 143.004 102.211 141.639 102.808C141.468 102.893 140.188 103.32 137.799 104.088C135.495 104.771 133.873 105.539 132.935 106.392C132.764 106.477 132.551 106.52 132.295 106.52C131.185 106.52 129.393 107.288 126.919 108.824C123.42 111.043 120.647 112.664 118.599 113.688C116.295 114.712 114.375 115.864 112.839 117.144C111.047 119.192 109.212 120.899 107.335 122.264C106.311 123.032 105.244 124.44 104.135 126.488C103.879 126.829 103.921 127.128 104.263 127.384C104.348 127.469 104.433 127.469 104.519 127.384H105.671C106.268 127.213 107.164 127.043 108.359 126.872C109.553 126.616 110.449 126.403 111.047 126.232C111.303 126.061 111.687 125.891 112.199 125.72C112.711 125.464 113.095 125.293 113.351 125.208C121.031 120.344 125.383 117.485 126.407 116.632C128.455 115.352 130.844 113.645 133.575 111.512ZM183.751 92.824C183.751 93.6773 183.537 94.1893 183.111 94.36C182.172 95.0427 181.148 95.2133 180.039 94.872C179.185 94.7013 178.631 94.7867 178.375 95.128C178.204 95.2987 177.692 95.2987 176.839 95.128C175.047 94.7013 173.98 94.5733 173.639 94.744C173.468 94.744 173.041 94.7013 172.359 94.616C171.676 94.4453 171.207 94.488 170.951 94.744C170.183 94.9147 169.372 94.7867 168.519 94.36L168.263 94.488C168.177 94.5733 168.049 94.6587 167.879 94.744C167.708 94.8293 167.58 94.872 167.495 94.872L167.367 95.128C165.916 95.2987 165.063 95.3413 164.807 95.256C164.636 95.1707 163.399 95 161.095 94.744C162.289 94.0613 163.74 93.72 165.447 93.72H169.287C169.457 93.6347 170.012 93.5493 170.951 93.464C171.975 93.3787 172.657 93.08 172.999 92.568C173.084 92.568 173.255 92.6533 173.511 92.824C173.596 93.2507 173.809 93.5067 174.151 93.592C174.577 93.592 174.876 93.464 175.047 93.208C175.9 92.5253 177.393 92.184 179.527 92.184C179.868 92.184 180.252 92.184 180.679 92.184C181.105 92.184 181.532 92.184 181.959 92.184C182.385 92.184 182.684 92.184 182.855 92.184C183.452 92.184 183.751 92.3973 183.751 92.824ZM97.0945 93.72C96.9238 93.8907 96.5825 93.976 96.0705 93.976C96.0705 93.6347 96.1558 93.2933 96.3265 92.952C96.4972 92.6107 96.7105 92.2693 96.9665 91.928C97.3078 91.5013 97.5212 91.2027 97.6065 91.032C101.873 85.7413 104.433 82.4987 105.287 81.304C106.311 80.1093 107.121 79.3413 107.719 79L107.335 80.536C107.249 80.6213 106.567 81.432 105.287 82.968C105.116 83.224 103.964 84.7173 101.831 87.448C99.6972 90.0933 98.1185 92.184 97.0945 93.72ZM119.111 124.44C119.964 123.843 120.391 123.373 120.391 123.032H119.495C118.471 123.629 116.764 124.611 114.375 125.976C111.985 127.256 110.193 128.28 108.999 129.048C108.999 129.219 108.913 129.304 108.743 129.304V129.432L108.999 129.944C109.255 129.773 109.639 129.645 110.151 129.56C110.748 129.475 111.132 129.389 111.303 129.304C112.241 128.621 113.607 127.768 115.399 126.744C117.191 125.635 118.428 124.867 119.111 124.44ZM121.287 123.032C123.676 121.667 125.041 120.643 125.383 119.96C125.297 119.704 125.127 119.704 124.871 119.96C124.615 120.045 123.249 120.771 120.775 122.136C120.519 122.392 120.391 122.691 120.391 123.032H121.287ZM135.239 102.04C135.239 102.125 135.111 102.296 134.855 102.552H135.367C136.22 102.381 137.457 102.04 139.079 101.528C140.785 101.016 141.809 100.717 142.151 100.632L142.279 100.504C142.364 100.333 142.449 100.205 142.535 100.12L142.151 99.992C138.311 101.016 136.007 101.699 135.239 102.04ZM104.775 87.064C104.007 87.6613 103.537 88.3013 103.367 88.984H104.519C104.689 89.1547 104.775 89.3253 104.775 89.496L105.287 88.984C106.055 88.472 106.439 87.7893 106.439 86.936C105.5 87.192 104.945 87.2347 104.775 87.064ZM142.279 97.56C141.084 98.4133 139.633 98.84 137.927 98.84C137.927 98.6693 137.969 98.584 138.055 98.584C141.468 97.3893 143.559 96.792 144.327 96.792C144.327 97.1333 144.199 97.3467 143.943 97.432C143.772 97.5173 143.473 97.56 143.047 97.56C142.62 97.56 142.364 97.56 142.279 97.56ZM157.767 52.76C156.231 54.7227 154.439 56.0027 152.391 56.6V56.472C154.353 54.7653 156.145 53.528 157.767 52.76ZM92.3585 99.48C91.6758 101.187 90.6945 102.467 89.4145 103.32V102.552C90.4385 100.931 91.4198 99.9067 92.3585 99.48ZM146.887 99.224C146.972 99.1387 147.015 99.0107 147.015 98.84C146.503 98.7547 145.052 99.0107 142.663 99.608L142.535 99.992C143.303 100.077 143.815 100.12 144.071 100.12C144.327 100.035 144.796 99.9067 145.479 99.736C146.161 99.48 146.631 99.3093 146.887 99.224ZM151.623 57.368C150.769 58.904 149.489 59.8 147.783 60.056C149.404 58.6053 150.684 57.7093 151.623 57.368ZM120.007 87.576C119.324 88.856 118.129 89.7093 116.423 90.136C117.447 88.856 118.641 88.0027 120.007 87.576ZM139.463 76.952L139.207 77.464L135.367 79C135.367 78.744 135.495 78.616 135.751 78.616C137.201 77.5067 138.439 76.952 139.463 76.952ZM118.983 106.52C118.471 107.715 117.447 108.397 115.911 108.568C116.337 107.459 117.361 106.776 118.983 106.52ZM164.807 92.568V92.312C165.233 92.312 165.873 92.312 166.727 92.312C167.665 92.2267 168.348 92.184 168.775 92.184C169.116 92.184 169.5 92.312 169.927 92.568C169.756 92.568 169.543 92.6107 169.287 92.696C169.031 92.7813 168.86 92.824 168.775 92.824C166.983 92.824 165.66 92.7387 164.807 92.568ZM132.679 55.448C131.484 55.448 130.673 56.088 130.247 57.368C130.844 57.5387 131.143 57.5813 131.143 57.496C131.228 57.4107 131.399 57.24 131.655 56.984C131.911 56.728 132.124 56.5147 132.295 56.344C132.551 56.088 132.679 55.7893 132.679 55.448ZM130.247 116.376C131.697 116.376 132.721 115.821 133.319 114.712C131.868 114.712 130.844 115.267 130.247 116.376ZM129.991 57.496C128.796 57.496 128.028 58.1787 127.687 59.544C127.943 59.544 128.156 59.5013 128.327 59.416C128.497 59.3307 128.668 59.2453 128.839 59.16C129.095 58.9893 129.308 58.8613 129.479 58.776C129.82 57.9227 129.991 57.496 129.991 57.496ZM92.7425 98.84C92.8278 97.7307 93.5105 96.792 94.7905 96.024C94.5345 97.56 93.8518 98.4987 92.7425 98.84ZM108.743 114.2C108.487 114.2 108.359 114.499 108.359 115.096C109.724 114.669 110.62 114.029 111.047 113.176C110.62 113.091 109.852 113.432 108.743 114.2ZM147.783 60.056C147.356 61.2507 146.503 61.848 145.223 61.848C145.82 60.6533 146.673 60.056 147.783 60.056ZM142.663 106.52C143.857 106.52 144.668 105.923 145.095 104.728C144.241 104.728 143.431 105.325 142.663 106.52ZM146.247 73.88C147.185 73.2827 148.081 73.0693 148.935 73.24C147.911 73.9227 146.673 74.3067 145.223 74.392C145.223 74.2213 145.564 74.0507 146.247 73.88ZM131.655 101.144C130.46 101.741 129.521 102.04 128.839 102.04C129.436 101.443 130.545 100.973 132.167 100.632C132.167 100.973 131.996 101.144 131.655 101.144ZM125.383 61.464C124.529 61.72 123.932 62.36 123.591 63.384C124.785 63.2987 125.383 62.6587 125.383 61.464ZM107.719 84.376C107.292 85.144 107.164 85.7413 107.335 86.168C107.42 85.9973 107.975 85.4 108.999 84.376V83.864C108.572 83.864 108.359 83.992 108.359 84.248C108.103 84.248 107.889 84.2907 107.719 84.376ZM128.583 102.04C127.9 102.893 126.876 103.32 125.511 103.32C126.364 102.467 127.388 102.04 128.583 102.04ZM151.623 72.344C151.452 72.7707 151.281 72.984 151.111 72.984C150.599 73.1547 149.959 73.24 149.191 73.24C149.447 72.6427 149.745 72.344 150.087 72.344H151.623ZM135.367 112.664C136.305 112.664 136.988 112.152 137.415 111.128C136.476 111.128 135.793 111.64 135.367 112.664ZM129.735 117.528C129.82 117.443 129.905 117.272 129.991 117.016C130.076 116.76 130.161 116.547 130.247 116.376C129.393 116.547 128.668 117.016 128.071 117.784H128.967L129.735 117.528ZM125.511 119.576C126.364 119.576 127.047 119.192 127.559 118.424C126.535 118.339 125.852 118.723 125.511 119.576ZM96.0705 94.232C96.0705 95.256 95.6438 95.8533 94.7905 96.024C94.7905 94.9147 95.2172 94.3173 96.0705 94.232ZM112.839 92.824C112.583 93.7627 112.071 94.232 111.303 94.232C111.388 93.2933 111.9 92.824 112.839 92.824ZM111.047 94.232C110.535 95.0853 109.895 95.4267 109.127 95.256C109.383 94.5733 110.023 94.232 111.047 94.232ZM123.591 85.784C123.164 86.552 122.524 86.936 121.671 86.936C121.841 86.168 122.481 85.784 123.591 85.784ZM148.807 95.896C148.209 95.9813 147.527 96.024 146.759 96.024C146.844 95.6827 147.441 95.512 148.551 95.512C148.721 95.512 148.807 95.64 148.807 95.896ZM134.087 113.688C134.684 113.688 135.025 113.645 135.111 113.56C135.196 113.475 135.239 113.176 135.239 112.664C134.727 112.749 134.343 113.091 134.087 113.688ZM115.911 91.032C115.569 91.3733 115.057 91.544 114.375 91.544C114.545 90.8613 115.057 90.6907 115.911 91.032ZM135.879 99.48C135.793 99.8213 135.196 99.992 134.087 99.992L134.471 99.48H135.879ZM134.087 100.12C133.745 100.461 133.447 100.632 133.191 100.632H132.295C132.551 100.12 133.148 99.9493 134.087 100.12ZM94.7905 113.816L94.9185 113.304H94.5345C94.1078 113.56 93.7665 113.816 93.5105 114.072C93.6812 114.072 93.7665 114.115 93.7665 114.2H93.8945C94.4065 114.029 94.7052 113.901 94.7905 113.816ZM137.543 111.128C138.055 111.128 138.396 110.787 138.567 110.104C138.055 110.104 137.756 110.147 137.671 110.232C137.585 110.317 137.543 110.616 137.543 111.128ZM143.815 75.288C143.644 75.6293 143.089 75.8 142.151 75.8C142.151 75.4587 142.279 75.288 142.535 75.288H143.815ZM88.7745 104.088C88.9452 104.173 88.9878 104.387 88.9025 104.728C88.8172 105.069 88.5612 105.24 88.1345 105.24C88.1345 104.557 88.3478 104.173 88.7745 104.088ZM145.095 74.392C145.095 74.8187 144.924 75.0747 144.583 75.16C144.327 75.2453 144.113 75.2027 143.943 75.032C144.113 74.6053 144.497 74.392 145.095 74.392ZM120.391 105.88C120.135 106.307 119.665 106.52 118.983 106.52C119.068 106.093 119.537 105.88 120.391 105.88ZM140.487 48.792C139.889 48.792 139.548 49.0907 139.463 49.688C139.975 49.688 140.316 49.3893 140.487 48.792Z" fill="url(#paint1_linear_510_3)"/>
<path d="M203.875 79H210.02C210.446 79 210.873 78.872 211.299 78.616C211.641 78.872 212.025 78.872 212.451 78.616C212.537 78.5307 212.921 78.488 213.604 78.488H219.875C220.644 78.488 221.155 78.36 221.411 78.104H222.307C224.014 77.9333 226.489 77.848 229.732 77.848C230.244 77.848 230.627 77.8053 230.883 77.72C231.14 77.5493 231.481 77.464 231.908 77.464H239.46C240.569 77.464 241.465 77.2933 242.148 76.952C242.318 76.952 242.489 76.9093 242.66 76.824C242.916 76.7387 243.086 76.696 243.172 76.696C243.342 76.6107 243.513 76.6533 243.684 76.824C243.854 76.9093 243.982 76.952 244.068 76.952H247.523C247.609 76.952 247.694 76.9093 247.78 76.824C247.865 76.7387 247.95 76.696 248.035 76.696C248.206 76.6107 248.334 76.6107 248.42 76.696C249.444 76.952 250.34 76.952 251.107 76.696C251.363 76.6107 251.577 76.6107 251.748 76.696C252.004 76.8667 252.686 76.952 253.796 76.952C254.052 76.696 254.18 76.568 254.18 76.568C254.521 75.8853 254.862 75.8853 255.203 76.568C255.033 76.568 254.905 76.6107 254.82 76.696L254.948 76.952C255.118 76.7813 255.203 76.568 255.203 76.312C255.46 76.312 255.63 76.3973 255.715 76.568C255.886 76.568 256.1 76.4827 256.355 76.312C256.697 76.1413 256.996 76.1413 257.252 76.312H259.172C259.428 76.3973 260.068 76.3547 261.091 76.184C261.348 76.0133 261.902 75.928 262.756 75.928C262.926 75.928 263.14 76.1413 263.396 76.568C263.396 76.9093 263.524 77.1653 263.78 77.336C264.548 78.104 264.932 78.7867 264.932 79.384V81.176C264.932 81.7733 264.676 82.072 264.164 82.072H255.715H239.46C238.948 82.072 238.606 82.1573 238.436 82.328C238.265 82.4133 238.009 82.456 237.667 82.456H233.572C232.292 82.5413 230.542 82.584 228.324 82.584H227.556C227.129 82.84 226.532 82.968 225.764 82.968H218.723C217.87 82.968 217.316 83.096 217.06 83.352C216.889 83.5227 216.633 83.608 216.292 83.608H212.579C211.299 83.608 210.489 83.736 210.147 83.992H209.379C208.014 83.992 206.947 84.0347 206.18 84.12C205.155 84.12 204.515 84.2053 204.26 84.376C204.089 84.4613 203.833 84.504 203.491 84.504H200.292C199.865 84.504 199.267 84.632 198.5 84.888C197.817 84.888 197.177 85.272 196.58 86.04C196.494 86.296 196.281 86.6373 195.939 87.064C195.598 87.4053 195.385 87.704 195.299 87.96C195.214 88.216 195.001 88.5573 194.659 88.984C194.318 89.3253 194.105 89.624 194.019 89.88C193.763 90.3067 193.166 91.2027 192.227 92.568C191.374 93.9333 190.734 95 190.307 95.768C189.795 96.28 189.497 96.664 189.411 96.92C188.899 97.432 188.643 97.9013 188.643 98.328C188.643 98.584 188.558 98.712 188.387 98.712C187.961 99.3947 187.534 100.205 187.107 101.144C187.022 101.229 186.851 101.485 186.595 101.912C186.339 102.339 186.126 102.637 185.955 102.808C185.87 102.893 185.785 103.021 185.699 103.192L185.571 103.576C185.401 103.917 185.145 104.387 184.803 104.984C184.547 105.581 184.377 106.008 184.291 106.264C184.291 106.691 184.078 107.16 183.651 107.672C183.225 108.184 182.969 108.568 182.883 108.824V109.08C182.798 109.165 182.755 109.251 182.755 109.336C182.585 110.189 182.115 111.213 181.347 112.408C181.091 113.432 180.921 113.987 180.835 114.072C180.665 114.243 180.579 114.755 180.579 115.608C180.579 116.035 180.537 116.291 180.451 116.376C180.195 116.632 180.067 117.187 180.067 118.04C180.067 118.467 179.982 118.808 179.811 119.064C179.811 119.149 179.811 119.32 179.811 119.576C179.897 119.747 179.897 119.875 179.811 119.96C179.811 120.045 179.769 120.173 179.683 120.344C179.683 120.429 179.683 120.515 179.683 120.6C179.683 120.856 179.726 121.027 179.811 121.112C179.982 121.283 179.982 121.411 179.811 121.496V121.752C179.726 121.837 179.683 122.349 179.683 123.288C179.683 123.544 179.811 123.672 180.067 123.672C180.409 123.757 180.579 124.013 180.579 124.44V125.208L180.963 125.592C181.39 125.677 181.859 125.72 182.371 125.72H183.267C183.779 125.976 184.547 126.104 185.571 126.104C185.998 126.104 186.425 125.976 186.851 125.72C187.022 125.72 187.278 125.635 187.619 125.464C188.046 125.293 188.387 125.208 188.643 125.208L189.027 124.952L190.179 124.184C190.265 124.184 190.393 124.184 190.563 124.184C190.734 124.184 190.905 124.141 191.075 124.056C191.246 123.971 191.502 123.8 191.843 123.544C192.185 123.288 192.441 123.117 192.611 123.032C193.294 122.435 193.934 122.008 194.531 121.752C195.129 121.496 195.683 121.027 196.195 120.344C196.793 120.173 197.134 120.045 197.219 119.96H197.603C198.03 119.533 198.926 118.979 200.292 118.296C200.462 118.296 200.633 118.253 200.803 118.168C200.974 117.997 201.102 117.912 201.188 117.912C201.273 117.827 201.358 117.699 201.443 117.528C201.614 117.357 201.742 117.229 201.827 117.144C201.827 116.888 201.955 116.76 202.212 116.76C202.467 116.675 202.681 116.547 202.851 116.376C203.108 116.12 203.363 115.864 203.619 115.608C203.875 115.352 204.089 115.181 204.26 115.096C204.515 114.84 204.899 114.584 205.411 114.328L206.563 113.176C207.161 112.92 207.929 112.323 208.868 111.384C209.465 110.787 209.977 110.403 210.403 110.232C210.489 110.232 210.617 110.104 210.787 109.848C211.044 109.592 211.3 109.464 211.556 109.464V109.848C211.556 110.36 211.428 110.744 211.172 111C210.745 111.427 210.531 111.768 210.531 112.024C210.275 112.024 210.105 112.195 210.02 112.536V112.408C209.337 112.408 208.953 112.579 208.868 112.92C208.356 113.432 208.1 113.816 208.1 114.072C207.673 114.072 207.459 114.2 207.459 114.456C207.118 114.456 206.862 114.541 206.691 114.712C206.606 114.797 206.179 115.096 205.411 115.608C204.729 116.12 204.217 116.589 203.875 117.016C203.278 117.613 202.766 117.955 202.34 118.04C202.169 118.211 201.87 118.424 201.443 118.68C201.102 118.936 200.846 119.107 200.675 119.192C200.419 119.277 200.121 119.491 199.779 119.832C199.438 120.088 199.139 120.259 198.883 120.344C198.371 120.685 198.073 121.027 197.987 121.368C197.817 121.539 197.561 121.667 197.219 121.752C196.878 121.837 196.665 121.965 196.58 122.136C196.494 122.221 196.281 122.349 195.939 122.52C195.683 122.605 195.513 122.733 195.427 122.904L195.299 123.032C195.129 123.203 194.915 123.288 194.659 123.288L194.275 123.672V123.8C194.531 124.056 194.659 124.056 194.659 123.8C195.086 123.629 195.299 123.373 195.299 123.032H196.835C197.091 123.032 197.262 122.904 197.347 122.648C197.347 122.477 197.561 122.307 197.987 122.136L199.139 121.368C199.31 121.283 199.694 120.941 200.292 120.344C200.718 120.259 201.145 120.003 201.571 119.576C201.742 119.32 202.083 119.064 202.595 118.808C203.107 118.467 203.449 118.168 203.619 117.912L205.924 116.376C206.179 116.035 206.691 115.48 207.459 114.712V114.456C207.886 114.456 208.1 114.285 208.1 113.944C208.185 113.944 208.611 113.816 209.379 113.56C209.635 113.56 209.764 113.603 209.764 113.688V114.072L207.076 116.376C206.99 116.461 206.862 116.589 206.691 116.76C206.521 116.931 206.35 117.059 206.18 117.144C206.009 117.229 205.795 117.357 205.539 117.528C205.369 117.613 205.241 117.699 205.156 117.784C204.985 117.784 204.985 117.827 205.156 117.912C205.241 117.997 205.369 118.04 205.539 118.04C205.795 118.04 205.924 118.253 205.924 118.68V118.424C205.667 118.595 205.539 118.808 205.539 119.064C205.198 119.064 205.028 119.235 205.028 119.576C204.601 119.576 204.387 119.789 204.387 120.216L204.003 120.344H204.26C204.345 120.344 204.387 120.216 204.387 119.96C204.814 119.96 205.028 119.832 205.028 119.576C205.283 119.32 205.411 119.149 205.411 119.064H205.924V119.832C205.155 120.856 204.729 121.411 204.643 121.496C204.388 121.496 204.132 121.709 203.875 122.136C203.619 122.477 203.406 122.648 203.236 122.648L201.827 124.056C201.401 124.227 200.889 124.568 200.292 125.08C199.779 125.592 199.395 125.891 199.139 125.976C198.713 126.147 198.201 126.403 197.603 126.744C197.006 127.085 196.537 127.299 196.195 127.384C195.513 127.896 195.086 128.237 194.915 128.408C194.318 128.835 193.123 129.389 191.331 130.072C191.331 130.243 191.246 130.328 191.075 130.328C190.819 130.157 190.179 130.285 189.155 130.712C189.07 130.712 188.814 130.755 188.387 130.84C187.961 130.925 187.662 131.011 187.491 131.096C187.065 131.181 186.467 131.224 185.699 131.224C185.529 131.224 185.358 131.309 185.187 131.48C184.675 131.907 184.121 131.907 183.523 131.48C183.011 131.48 182.286 131.096 181.347 130.328C181.006 129.987 180.494 129.603 179.811 129.176C179.299 128.664 178.915 128.323 178.659 128.152C178.489 127.981 178.361 127.725 178.275 127.384C178.105 127.128 177.977 126.957 177.891 126.872C177.806 126.616 177.507 126.232 176.995 125.72C176.739 125.293 176.569 124.995 176.483 124.824C176.227 124.568 176.099 124.312 176.099 124.056C176.099 123.8 176.014 123.459 175.843 123.032C175.587 122.605 175.459 122.307 175.459 122.136C175.545 121.453 175.587 120.813 175.587 120.216C175.587 119.533 175.587 118.808 175.587 118.04C175.502 117.272 175.459 116.675 175.459 116.248C175.459 115.309 175.587 114.669 175.843 114.328C176.014 114.072 176.099 113.603 176.099 112.92C176.099 112.579 176.227 112.195 176.483 111.768C176.483 111.512 176.526 111.384 176.611 111.384C176.611 110.701 176.654 110.275 176.739 110.104C176.91 109.848 177.038 109.464 177.123 108.952C177.209 108.44 177.337 108.056 177.507 107.8C177.678 107.629 178.147 106.733 178.915 105.112C178.574 104.685 178.702 104.387 179.299 104.216C179.385 104.216 179.427 104.088 179.427 103.832L179.683 103.448L179.811 103.192C180.067 102.851 180.366 102.339 180.707 101.656C181.049 100.973 181.347 100.419 181.603 99.992V99.224H181.731C181.902 99.0533 182.073 98.84 182.243 98.584L182.499 98.328C182.755 97.9867 182.883 97.6027 182.883 97.176C183.054 97.0907 183.054 96.92 182.883 96.664C182.798 96.408 182.755 96.2373 182.755 96.152L182.883 96.024C183.395 96.024 183.737 95.9387 183.907 95.768C184.163 95.512 184.291 95.128 184.291 94.616C184.377 94.616 184.419 94.5733 184.419 94.488C184.59 94.3173 184.547 94.232 184.291 94.232V93.72C184.291 93.5493 184.419 93.336 184.675 93.08L184.803 93.464C185.059 93.464 185.187 93.336 185.187 93.08C185.358 93.08 185.486 93.0373 185.571 92.952C185.486 92.952 185.443 92.8667 185.443 92.696L185.187 93.08H184.675C184.675 92.4827 185.017 91.9707 185.699 91.544C185.699 91.8 185.785 91.928 185.955 91.928H186.083C185.827 91.672 185.657 91.544 185.571 91.544C185.657 91.544 185.699 91.544 185.699 91.544C185.699 91.4587 185.699 91.3733 185.699 91.288C186.126 90.0933 186.595 89.1973 187.107 88.6C187.278 88.344 187.491 88.0027 187.747 87.576C188.003 87.064 188.217 86.68 188.387 86.424V86.296C188.387 86.1253 188.345 86.04 188.259 86.04H184.419H184.291C183.779 86.3813 182.969 86.5947 181.859 86.68C180.835 86.68 180.238 86.68 180.067 86.68C179.043 86.68 178.275 86.808 177.763 87.064H176.739C176.398 87.064 175.886 87.1067 175.203 87.192C174.435 87.192 173.881 87.192 173.539 87.192C172.686 87.192 172.131 87.2773 171.875 87.448C171.705 87.5333 171.449 87.576 171.107 87.576H168.035C167.694 87.576 167.438 87.6613 167.267 87.832C166.926 88.0027 166.414 88.088 165.731 88.088C164.963 88.088 164.451 88.1307 164.195 88.216C163.939 88.216 163.683 88.2587 163.427 88.344C163.171 88.5147 162.745 88.6 162.147 88.6C161.806 88.6 161.337 88.6427 160.739 88.728C160.057 88.728 159.545 88.728 159.203 88.728C158.35 88.728 157.753 88.856 157.411 89.112C157.07 89.4533 156.729 89.4107 156.387 88.984C156.217 88.8133 155.705 88.728 154.851 88.728C154.595 88.728 154.339 88.5573 154.083 88.216C153.486 87.7893 153.187 87.1493 153.187 86.296V84.76C153.187 84.4187 153.315 84.1627 153.571 83.992C153.913 83.5653 154.595 83.096 155.619 82.584C155.875 82.4133 156.217 82.4133 156.643 82.584C156.985 82.9253 157.369 83.0107 157.795 82.84C157.881 82.6693 158.051 82.584 158.307 82.584C158.307 82.4987 158.435 82.456 158.691 82.456C160.227 82.456 161.251 82.328 161.763 82.072H164.195C164.707 82.072 165.219 81.944 165.731 81.688C165.902 81.6027 166.115 81.6027 166.371 81.688C166.713 82.0293 167.097 82.1147 167.523 81.944C167.95 81.688 168.633 81.56 169.571 81.56H172.643C173.411 81.56 173.966 81.432 174.307 81.176H174.947C176.142 81.176 177.081 81.0907 177.763 80.92C178.105 80.92 178.361 80.8773 178.531 80.792C178.787 80.6213 179.171 80.536 179.683 80.536H185.187C186.041 80.536 186.595 80.408 186.851 80.152C187.107 80.0667 187.321 80.0667 187.491 80.152C187.833 80.408 188.387 80.536 189.155 80.536H191.715C192.398 80.536 192.953 80.2373 193.379 79.64C193.465 79.5547 193.635 79.3413 193.891 79C194.147 78.5733 194.361 78.2747 194.531 78.104C194.617 77.9333 194.745 77.7627 194.915 77.592C195.171 77.336 195.385 77.1653 195.556 77.08C195.726 76.9093 195.811 76.7387 195.811 76.568C196.494 75.6293 197.518 74.4773 198.883 73.112C199.139 72.9413 199.395 72.6427 199.651 72.216C199.907 71.704 200.121 71.3627 200.292 71.192C201.059 70.5947 201.571 70.0827 201.827 69.656C202.51 68.7173 204.345 66.7547 207.331 63.768C208.099 63 208.611 62.4453 208.868 62.104C209.038 62.0187 209.166 61.8907 209.251 61.72C209.422 61.464 209.55 61.336 209.635 61.336C209.721 60.9093 210.105 60.696 210.787 60.696C210.958 60.696 211.086 60.7387 211.172 60.824C211.342 60.9093 211.47 60.952 211.556 60.952H211.812C211.982 61.0373 212.11 61.08 212.195 61.08C212.878 61.336 213.262 61.6773 213.347 62.104C213.518 62.36 213.86 62.744 214.372 63.256C214.457 63.3413 214.5 63.64 214.5 64.152C214.5 64.2373 214.542 64.4507 214.627 64.792C214.713 65.048 214.756 65.2613 214.756 65.432C214.756 65.688 214.713 65.9867 214.627 66.328C214.627 66.6693 214.585 66.9253 214.5 67.096C214.5 67.1813 214.5 67.3093 214.5 67.48C214.5 67.5653 214.414 67.6933 214.243 67.864C214.158 67.9493 214.03 68.0773 213.86 68.248C213.774 68.3333 213.561 68.5467 213.22 68.888C212.452 69.8267 211.172 71.1067 209.379 72.728L208.1 74.008C207.929 74.1787 207.545 74.4773 206.948 74.904C206.436 75.2453 206.094 75.5867 205.924 75.928C205.838 76.184 205.667 76.44 205.411 76.696C205.241 76.8667 205.028 77.08 204.771 77.336C204.601 77.592 204.473 77.7627 204.387 77.848C204.046 78.1893 203.918 78.5733 204.003 79C203.747 79 203.577 79.0853 203.491 79.256L203.619 79.384C203.875 79.2987 203.961 79.1707 203.875 79ZM202.595 80.536C202.339 80.536 202.126 80.6213 201.955 80.792L202.212 80.92C202.297 80.8347 202.34 80.7067 202.34 80.536C203.193 80.536 203.705 80.6213 203.875 80.792H204.26C204.601 80.6213 205.369 80.536 206.563 80.536H208.227C209.251 80.536 210.02 80.408 210.531 80.152H210.916L211.299 80.408C211.555 80.2373 211.854 80.152 212.195 80.152C212.622 80.0667 213.006 80.0667 213.347 80.152C213.689 80.152 214.03 80.1093 214.372 80.024H216.675H217.444C217.614 79.768 218.382 79.64 219.748 79.64C221.369 79.64 222.606 79.5547 223.459 79.384H224.099C224.099 79.128 224.142 79 224.228 79C224.313 79 224.398 79.0427 224.484 79.128L224.611 79.256L224.996 79.384C225.166 79.2133 225.507 79.2133 226.02 79.384C226.617 79.64 227.129 79.64 227.556 79.384C227.897 79.128 228.537 79 229.476 79H232.42C234.212 79 235.321 78.872 235.748 78.616H235.875C236.217 78.9573 236.601 78.9573 237.028 78.616C237.113 78.616 237.241 78.6587 237.412 78.744L237.796 78.872C237.881 78.872 238.18 78.744 238.692 78.488H239.46C240.142 78.744 240.612 78.7867 240.868 78.616C241.38 78.5307 242.19 78.488 243.299 78.488H251.876H252.644C252.729 78.488 252.814 78.4453 252.9 78.36L253.028 78.232C252.942 78.1467 252.814 78.104 252.644 78.104H241.38H235.875C235.364 78.104 235.065 78.1467 234.979 78.232C234.724 78.488 234.51 78.488 234.34 78.232C233.913 77.8907 233.401 77.8907 232.804 78.232C232.548 78.4027 232.249 78.488 231.908 78.488H225.251C224.825 78.488 224.569 78.5307 224.484 78.616C224.313 78.7867 224.228 78.9147 224.228 79L223.844 78.872L223.588 78.744L223.332 78.616C223.076 78.872 222.478 79 221.54 79H217.571C217.23 79 216.974 79.0853 216.804 79.256C216.718 79.3413 216.035 79.384 214.756 79.384C213.561 79.5547 211.854 79.64 209.635 79.64C209.038 79.64 208.697 79.6827 208.611 79.768C208.355 79.9387 207.929 80.024 207.331 80.024H203.108C203.022 80.024 202.894 80.0667 202.723 80.152C202.638 80.152 202.595 80.28 202.595 80.536ZM190.947 81.176C190.606 81.688 190.35 81.688 190.179 81.176C189.753 81.176 189.497 81.2187 189.411 81.304C189.326 81.304 189.155 81.3467 188.899 81.432C188.643 81.5173 188.473 81.56 188.387 81.56H186.083C185.913 81.56 185.657 81.6027 185.315 81.688C184.974 81.688 184.675 81.688 184.419 81.688C184.334 81.688 184.291 81.816 184.291 82.072C184.377 82.1573 184.419 82.2427 184.419 82.328C184.675 82.1573 185.102 82.072 185.699 82.072H190.179C190.35 82.072 190.478 82.072 190.563 82.072C190.734 81.9867 190.862 81.944 190.947 81.944L191.331 81.688L191.459 81.56C191.545 81.3893 191.63 81.304 191.715 81.304C191.715 81.2187 191.459 81.176 190.947 81.176ZM187.107 126.744H186.083L185.955 126.872C185.955 126.957 185.998 127.085 186.083 127.256C186.169 127.256 186.382 127.341 186.723 127.512C187.15 127.683 187.534 127.725 187.875 127.64C188.302 127.64 188.686 127.768 189.027 128.024C189.027 128.195 189.155 128.195 189.411 128.024C189.582 127.939 189.838 127.853 190.179 127.768C190.606 127.683 190.862 127.64 190.947 127.64L191.075 127.384L190.947 127.256C190.435 127.256 190.094 127.171 189.923 127C189.667 126.915 189.369 126.915 189.027 127C188.601 126.829 187.961 126.744 187.107 126.744ZM228.068 80.92V81.176H225.38H224.996C224.91 81.2613 224.868 81.3893 224.868 81.56L224.996 81.944C225.422 81.688 225.764 81.56 226.02 81.56H229.732C230.158 81.56 230.414 81.4747 230.5 81.304H230.756L230.5 81.176C229.39 81.176 228.58 81.0907 228.068 80.92ZM235.875 80.92C235.875 80.8347 235.833 80.7067 235.748 80.536H234.596C234.425 80.536 234.126 80.664 233.7 80.92C233.358 81.176 233.06 81.2613 232.804 81.176C232.718 81.176 232.676 81.2187 232.676 81.304C233.188 81.6453 233.828 81.6027 234.596 81.176C234.681 81.0053 234.937 81.048 235.364 81.304C235.705 81.304 235.875 81.176 235.875 80.92ZM238.436 80.92H239.46L239.715 80.792L239.46 80.536H237.796L237.667 80.792C237.667 80.8773 237.71 80.92 237.796 80.92H238.436ZM181.347 82.456H182.755C182.841 82.3707 182.969 82.328 183.139 82.328C183.054 82.328 182.926 82.2853 182.755 82.2C182.67 82.1147 182.585 82.072 182.499 82.072H180.963L180.835 82.328C180.835 82.4133 180.878 82.456 180.963 82.456H181.219H181.347ZM229.22 80.536H229.987C229.987 80.4507 230.03 80.408 230.116 80.408C230.116 80.2373 229.988 80.152 229.732 80.152H228.708C228.537 80.152 228.451 80.2373 228.451 80.408H228.708L229.22 80.536ZM239.076 80.024H240.1H240.484C240.569 79.8533 240.697 79.768 240.868 79.768L240.484 79.64H240.1H239.715H239.076V79.896V80.024ZM248.804 80.536H248.035L247.652 80.792C247.822 80.8773 247.95 80.92 248.035 80.92H249.06C249.145 80.92 249.273 80.8773 249.444 80.792C249.358 80.792 249.23 80.7493 249.06 80.664C248.974 80.5787 248.889 80.536 248.804 80.536ZM221.411 81.688C221.326 81.688 221.198 81.688 221.028 81.688L220.9 81.56C220.814 81.56 220.686 81.6027 220.515 81.688C220.43 81.688 220.345 81.688 220.259 81.688C220.345 81.7733 220.558 81.9013 220.9 82.072C221.07 82.072 221.241 82.0293 221.411 81.944V81.688ZM209.635 82.456H210.147L210.403 82.328L210.147 82.072H209.635C209.55 82.072 209.465 82.1147 209.379 82.2L209.251 82.328L209.379 82.456C209.465 82.456 209.55 82.456 209.635 82.456ZM221.796 80.792L221.924 80.92C222.265 81.176 222.606 81.176 222.948 80.92L223.076 80.792L222.948 80.664C222.862 80.5787 222.777 80.536 222.692 80.536C222.35 80.536 222.052 80.6213 221.796 80.792ZM179.427 82.456C179.683 82.456 179.811 82.4133 179.811 82.328L179.683 82.072H179.043L178.915 82.2C178.83 82.2853 178.745 82.328 178.659 82.328C178.83 82.4133 179.043 82.456 179.299 82.456H179.427ZM217.571 81.944H217.956C217.956 81.6027 217.828 81.5173 217.571 81.688C217.315 81.688 217.273 81.7733 217.444 81.944C217.529 82.0293 217.571 82.0293 217.571 81.944ZM220.132 80.92H220.515V80.792C220.515 80.6213 220.43 80.536 220.259 80.536C220.174 80.536 220.046 80.6213 219.875 80.792C219.875 80.8773 219.961 80.92 220.132 80.92ZM243.684 79.768L243.939 80.024H244.068L244.324 79.768C244.324 79.6827 244.238 79.64 244.068 79.64C243.812 79.64 243.684 79.6827 243.684 79.768ZM254.051 78.488C254.308 78.488 254.478 78.4027 254.563 78.232C254.478 78.1467 254.35 78.104 254.18 78.104C254.094 78.104 253.966 78.1467 253.796 78.232L254.051 78.488ZM212.068 82.456C212.153 82.456 212.281 82.4133 212.451 82.328C212.366 82.328 212.281 82.2853 212.195 82.2L212.068 82.072L211.939 82.2C211.854 82.2853 211.769 82.328 211.683 82.328C211.769 82.328 211.854 82.3707 211.939 82.456H212.068ZM209.764 81.176L209.635 81.304H209.764V81.176ZM256.612 78.232L256.484 78.104C256.313 78.1893 256.313 78.3173 256.484 78.488C256.484 78.3173 256.526 78.232 256.612 78.232ZM255.332 78.232C255.332 78.4027 255.417 78.488 255.588 78.488V78.232V78.104L255.332 78.232ZM246.628 79.768L246.756 80.024L247.012 79.768C247.012 79.6827 246.926 79.64 246.756 79.64C246.756 79.7253 246.713 79.768 246.628 79.768ZM242.403 79.768C242.403 79.6827 242.318 79.64 242.148 79.64C242.062 79.7253 242.062 79.8533 242.148 80.024L242.403 79.768ZM241.764 80.92V80.792V80.536L241.636 80.792C241.636 80.8773 241.678 80.92 241.764 80.92ZM237.667 80.024L237.796 79.768C237.796 79.6827 237.753 79.64 237.667 79.64V79.768V80.024ZM225.38 80.152V80.408H225.636V80.152H225.38ZM222.563 81.944L222.307 81.688C222.307 81.8587 222.393 81.944 222.563 81.944ZM219.108 80.792H218.979C218.809 80.792 218.809 80.8347 218.979 80.92C218.979 80.8347 219.022 80.792 219.108 80.792ZM218.979 81.944H219.108C219.022 81.7733 218.894 81.688 218.723 81.688L218.979 81.944ZM215.908 81.944H216.035L215.908 81.688H215.652L215.908 81.944ZM213.22 82.328C213.22 82.4133 213.262 82.456 213.347 82.456C213.347 82.3707 213.433 82.328 213.604 82.328L213.347 82.072L213.22 82.328ZM211.939 81.304V81.176L211.683 81.304H211.939ZM213.987 107.416L213.86 107.288C213.774 107.203 213.731 107.117 213.731 107.032V106.904C213.817 106.904 213.902 106.861 213.987 106.776L214.116 106.648L214.372 106.52C214.457 106.605 214.5 106.776 214.5 107.032C214.414 107.288 214.244 107.416 213.987 107.416ZM210.531 112.024C210.788 112.024 210.916 112.152 210.916 112.408H210.531V112.536V112.024ZM210.531 112.536V112.408L210.403 112.792L210.02 112.408V112.536H210.531ZM205.924 118.424V118.68C206.179 118.68 206.307 118.723 206.307 118.808C206.307 118.979 206.179 119.064 205.924 119.064V118.424ZM212.579 108.44C212.579 108.269 212.665 108.141 212.835 108.056L212.964 108.184C212.878 108.355 212.75 108.44 212.579 108.44ZM212.068 108.952C212.068 108.611 212.238 108.44 212.579 108.44C212.579 108.781 212.409 108.952 212.068 108.952C212.068 109.208 211.897 109.379 211.556 109.464C211.556 109.123 211.726 108.952 212.068 108.952ZM184.291 94.616C184.035 94.616 183.907 94.5733 183.907 94.488C183.907 94.3173 184.035 94.232 184.291 94.232V94.616ZM181.603 99.224C181.433 99.224 181.305 99.1813 181.219 99.096L181.347 98.84C181.518 99.0107 181.603 99.1387 181.603 99.224ZM179.683 103.448C179.427 103.448 179.299 103.32 179.299 103.064H179.427C179.598 103.149 179.683 103.277 179.683 103.448Z" fill="url(#paint2_linear_510_3)"/>
<defs>
<linearGradient id="paint0_linear_510_3" x1="62.5" y1="47" x2="62.5" y2="102" gradientUnits="userSpaceOnUse">
<stop stop-color="#868F98"/>
<stop offset="1" stop-color="#1299FF"/>
</linearGradient>
<linearGradient id="paint1_linear_510_3" x1="157.5" y1="71" x2="157.5" y2="121" gradientUnits="userSpaceOnUse">
<stop stop-color="#989186"/>
<stop offset="1" stop-color="#1299FF"/>
</linearGradient>
<linearGradient id="paint2_linear_510_3" x1="157.5" y1="71" x2="157.5" y2="121" gradientUnits="userSpaceOnUse">
<stop stop-color="#868F98"/>
<stop offset="1" stop-color="#1299FF"/>
</linearGradient>
</defs>
</svg>
